<svg xmlns="http://www.w3.org/2000/svg" width="1600" height="900" viewBox="0 0 1600 900">
  <defs>
    <linearGradient id="bg" x1="0" y1="0" x2="1" y2="1">
      <stop offset="0" stop-color="#0d1014"/>
      <stop offset="1" stop-color="#06080a"/>
    </linearGradient>
    <linearGradient id="accent" x1="0" y1="0" x2="1" y2="0">
      <stop offset="0" stop-color="#ff9f47"/>
      <stop offset="1" stop-color="#ff8519"/>
    </linearGradient>
  </defs>
  <rect width="1600" height="900" fill="url(#bg)"/>
  <rect x="120" y="92" width="1360" height="716" rx="18" fill="#11151a" stroke="#2a3039" stroke-width="2"/>
  <rect x="120" y="92" width="1360" height="46" rx="18" fill="#171c23"/>
  <circle cx="154" cy="115" r="8" fill="#ff5f57"/>
  <circle cx="180" cy="115" r="8" fill="#febb2f"/>
  <circle cx="206" cy="115" r="8" fill="#28c840"/>

  <rect x="160" y="180" width="850" height="80" rx="12" fill="#1a2028"/>
  <rect x="176" y="196" width="520" height="16" rx="8" fill="#e7edf8"/>
  <rect x="176" y="224" width="420" height="10" rx="5" fill="#6f7784"/>

  <rect x="160" y="284" width="850" height="220" rx="14" fill="#1a2028"/>
  <rect x="184" y="314" width="180" height="96" rx="12" fill="#242c37"/>
  <rect x="388" y="314" width="590" height="14" rx="7" fill="#dce4f2"/>
  <rect x="388" y="338" width="420" height="10" rx="5" fill="#6f7784"/>
  <rect x="388" y="366" width="200" height="10" rx="5" fill="url(#accent)"/>
  <rect x="184" y="430" width="794" height="12" rx="6" fill="#2a313c"/>
  <rect x="184" y="452" width="600" height="12" rx="6" fill="#2a313c"/>

  <rect x="160" y="530" width="850" height="236" rx="14" fill="#1a2028"/>
  <rect x="184" y="562" width="270" height="14" rx="7" fill="#dce4f2"/>
  <rect x="184" y="590" width="460" height="10" rx="5" fill="#6f7784"/>
  <rect x="184" y="620" width="420" height="14" rx="7" fill="#242c37"/>
  <rect x="184" y="648" width="380" height="14" rx="7" fill="#242c37"/>
  <rect x="184" y="676" width="320" height="14" rx="7" fill="#242c37"/>

  <rect x="1042" y="180" width="398" height="586" rx="14" fill="#171c23"/>
  <rect x="1066" y="210" width="188" height="14" rx="7" fill="#dce4f2"/>
  <rect x="1066" y="236" width="250" height="10" rx="5" fill="#6f7784"/>
  <rect x="1066" y="274" width="180" height="30" rx="15" fill="#222a35"/>
  <rect x="1066" y="326" width="340" height="12" rx="6" fill="#2a313c"/>
  <rect x="1066" y="352" width="310" height="12" rx="6" fill="#2a313c"/>
  <rect x="1066" y="378" width="280" height="12" rx="6" fill="#2a313c"/>
  <rect x="1066" y="428" width="340" height="298" rx="10" fill="#0f1318" stroke="#2a3039"/>

  <text x="800" y="840" fill="#9ca5b2" font-size="22" text-anchor="middle" font-family="-apple-system, SF Pro Text, Helvetica Neue, Arial, sans-serif">
    Back Channel Screenshot Placeholder
  </text>
</svg>
